<svg xmlns="http://www.w3.org/2000/svg" version="1.1" xmlns:xlink="http://www.w3.org/1999/xlink" xmlns:svgjs="http://svgjs.dev/svgjs" width="32" height="32"><svg width="32" height="32" viewBox="0 0 8.4666665 8.4666666" version="1.1" id="SvgjsSvg1099" xml:space="preserve" inkscape:version="1.2.1 (9c6d41e410, 2022-07-14)" sodipodi:docname="favicon.svg" xmlns:inkscape="http://www.inkscape.org/namespaces/inkscape" xmlns:sodipodi="http://sodipodi.sourceforge.net/DTD/sodipodi-0.dtd" xmlns="http://www.w3.org/2000/svg" xmlns:svg="http://www.w3.org/2000/svg"><sodipodi:namedview id="SvgjsSodipodi:namedview1098" pagecolor="#ffffff" bordercolor="#595959" borderopacity="1" inkscape:showpageshadow="0" inkscape:pageopacity="0" inkscape:pagecheckerboard="true" inkscape:deskcolor="#b5b5b5" inkscape:document-units="mm" showgrid="true" inkscape:zoom="22.627417" inkscape:cx="35.090174" inkscape:cy="13.656" inkscape:window-width="2560" inkscape:window-height="1377" inkscape:window-x="-8" inkscape:window-y="-8" inkscape:window-maximized="1" inkscape:current-layer="layer1"><inkscape:grid type="xygrid" id="SvgjsInkscape:grid1097" originy="0.26458333" originx="0.26458333"></inkscape:grid></sodipodi:namedview><defs id="SvgjsDefs1096"></defs><g inkscape:label="Warstwa 1" inkscape:groupmode="layer" id="SvgjsG1095"><path id="SvgjsPath1094" style="fill:#bfbfbf;fill-opacity:1;stroke:none;stroke-width:0.2" d="M 4.2333333,0.52916667 C 3.2880773,0.5291759 2.4146283,1.0334676 1.9420003,1.8520833 1.7097709,2.2542983 1.5875079,2.7105569 1.5875,3.175 V 6.35 h 2.6458333 c 0,-0.6342275 0,-1.3224183 0,-1.8794718 C 3.617638,4.34485 3.1753135,3.8033913 3.175,3.175 3.1753135,2.5466087 3.617638,2.00515 4.2333333,1.8794718 Z" sodipodi:nodetypes="ccccccccc"></path><path id="SvgjsPath1093" style="fill:#bfbfbf;fill-opacity:1;stroke:none;stroke-width:0.2" d="M 4.7625,0.52916667 V 1.8794718 C 5.3781953,2.00515 5.8205198,2.5466087 5.8208333,3.175 5.8205198,3.8033913 5.3781953,4.34485 4.7625,4.4705282 c 0,1.1556573 0,2.3113145 0,3.4669718 L 6.9546143,4.6560465 c 0.00503,-0.00738 0.010028,-0.014789 0.014986,-0.022221 l 0.00362,-0.00568 c 0.028123,-0.042621 0.055006,-0.086048 0.080615,-0.1302246 0.4726326,-0.8186237 0.4726326,-1.8272097 0,-2.6458334 C 6.581205,1.0334676 5.707756,0.5291759 4.7625,0.52916667 Z" sodipodi:nodetypes="cccccccccsc"></path><circle style="fill:#bfbfbf;fill-opacity:1;stroke:none;stroke-width:0.2" id="SvgjsCircle1092" cx="4.4979167" cy="3.175" r="0.79374999"></circle><path style="fill:#bfbfbf;fill-opacity:1;stroke:none;stroke-width:0.2" d="M 4.2333333,7.4083332 V 7.9374999 H 0.52916666 V 7.4083332 Z" id="SvgjsPath1091"></path><path style="fill:#bfbfbf;fill-opacity:1;stroke:none;stroke-width:0.282843" d="m 4.2333333,6.6145833 v 0.5291666 h -3.175 V 6.6145833 Z" id="SvgjsPath1090"></path></g></svg><style>@media (prefers-color-scheme: light) { :root { filter: contrast(1) brightness(0.8); } }
@media (prefers-color-scheme: dark) { :root { filter: contrast(1) brightness(1.2); } }
</style></svg>